<svg xmlns="http://www.w3.org/2000/svg" width="960" height="370" viewBox="0 0 960 370" role="img" aria-labelledby="title desc">
  <title id="title">真实语言使用统计</title>
  <desc id="desc">根据 Birditch 本人和所属组织中实际参与的 74 个一方仓库汇总 GitHub Linguist 语言字节。</desc>
  <rect width="960" height="370" rx="8" fill="#0d1117" stroke="#30363d"/>
  <path d="M0 1H960" stroke="#58a6ff" stroke-width="3"/>
  <g font-family="-apple-system,BlinkMacSystemFont,Segoe UI,Arial,sans-serif">
    <text x="48" y="45" fill="#ffffff" font-size="24" font-weight="800">Actual language usage</text>
    <text x="48" y="71" fill="#8b949e" font-size="13">个人 + 9 个组织 · 仅统计实际参与的一方仓库 · 排除 fork、归档与构建标记语言</text>
    <text x="48" y="106" fill="#8b949e" font-size="11" font-weight="800">REPOSITORIES</text>
    <text x="146" y="106" fill="#f8fafc" font-size="18" font-weight="800">74</text>
    <text x="246" y="106" fill="#8b949e" font-size="11" font-weight="800">PUBLIC / PRIVATE</text>
    <text x="377" y="106" fill="#f8fafc" font-size="18" font-weight="800">7 / 67</text>
    <text x="524" y="106" fill="#8b949e" font-size="11" font-weight="800">SOURCE VOLUME</text>
    <text x="648" y="106" fill="#f8fafc" font-size="18" font-weight="800">175.4 MB</text>
    <rect x="48" y="134" width="271" height="16" fill="#b07219"><title>Java 31.3%</title></rect><rect x="319" y="134" width="215" height="16" fill="#882B0F"><title>ActionScript 24.9%</title></rect><rect x="534" y="134" width="182" height="16" fill="#3178c6"><title>TypeScript 21.1%</title></rect><rect x="716" y="134" width="37" height="16" fill="#00ADD8"><title>Go 4.3%</title></rect><rect x="753" y="134" width="32" height="16" fill="#00B4AB"><title>Dart 3.7%</title></rect><rect x="785" y="134" width="32" height="16" fill="#A97BFF"><title>Kotlin 3.7%</title></rect><rect x="817" y="134" width="27" height="16" fill="#7355dd"><title>C# 3.1%</title></rect><rect x="844" y="134" width="23" height="16" fill="#41b883"><title>Vue 2.7%</title></rect><rect x="867" y="134" width="45" height="16" fill="#6e7681"><title>Other 5.3%</title></rect>
    
        <g>
          <rect x="48" y="176" width="10" height="10" rx="2" fill="#b07219"/>
          <text x="66" y="185" fill="#f8fafc" font-size="14" font-weight="800">Java</text>
          <text x="460" y="185" text-anchor="end" fill="#c9d1d9" font-size="13" font-weight="700">31.3% · 55.0 MB</text>
          <rect x="48" y="196" width="412" height="5" rx="2" fill="#21262d"/>
          <rect x="48" y="196" width="129" height="5" rx="2" fill="#b07219"/>
        </g>
        <g>
          <rect x="500" y="176" width="10" height="10" rx="2" fill="#882B0F"/>
          <text x="518" y="185" fill="#f8fafc" font-size="14" font-weight="800">ActionScript</text>
          <text x="912" y="185" text-anchor="end" fill="#c9d1d9" font-size="13" font-weight="700">24.9% · 43.7 MB</text>
          <rect x="500" y="196" width="412" height="5" rx="2" fill="#21262d"/>
          <rect x="500" y="196" width="103" height="5" rx="2" fill="#882B0F"/>
        </g>
        <g>
          <rect x="48" y="220" width="10" height="10" rx="2" fill="#3178c6"/>
          <text x="66" y="229" fill="#f8fafc" font-size="14" font-weight="800">TypeScript</text>
          <text x="460" y="229" text-anchor="end" fill="#c9d1d9" font-size="13" font-weight="700">21.1% · 37.0 MB</text>
          <rect x="48" y="240" width="412" height="5" rx="2" fill="#21262d"/>
          <rect x="48" y="240" width="87" height="5" rx="2" fill="#3178c6"/>
        </g>
        <g>
          <rect x="500" y="220" width="10" height="10" rx="2" fill="#00ADD8"/>
          <text x="518" y="229" fill="#f8fafc" font-size="14" font-weight="800">Go</text>
          <text x="912" y="229" text-anchor="end" fill="#c9d1d9" font-size="13" font-weight="700">4.3% · 7.5 MB</text>
          <rect x="500" y="240" width="412" height="5" rx="2" fill="#21262d"/>
          <rect x="500" y="240" width="18" height="5" rx="2" fill="#00ADD8"/>
        </g>
        <g>
          <rect x="48" y="264" width="10" height="10" rx="2" fill="#00B4AB"/>
          <text x="66" y="273" fill="#f8fafc" font-size="14" font-weight="800">Dart</text>
          <text x="460" y="273" text-anchor="end" fill="#c9d1d9" font-size="13" font-weight="700">3.7% · 6.4 MB</text>
          <rect x="48" y="284" width="412" height="5" rx="2" fill="#21262d"/>
          <rect x="48" y="284" width="15" height="5" rx="2" fill="#00B4AB"/>
        </g>
        <g>
          <rect x="500" y="264" width="10" height="10" rx="2" fill="#A97BFF"/>
          <text x="518" y="273" fill="#f8fafc" font-size="14" font-weight="800">Kotlin</text>
          <text x="912" y="273" text-anchor="end" fill="#c9d1d9" font-size="13" font-weight="700">3.7% · 6.4 MB</text>
          <rect x="500" y="284" width="412" height="5" rx="2" fill="#21262d"/>
          <rect x="500" y="284" width="15" height="5" rx="2" fill="#A97BFF"/>
        </g>
        <g>
          <rect x="48" y="308" width="10" height="10" rx="2" fill="#7355dd"/>
          <text x="66" y="317" fill="#f8fafc" font-size="14" font-weight="800">C#</text>
          <text x="460" y="317" text-anchor="end" fill="#c9d1d9" font-size="13" font-weight="700">3.1% · 5.4 MB</text>
          <rect x="48" y="328" width="412" height="5" rx="2" fill="#21262d"/>
          <rect x="48" y="328" width="13" height="5" rx="2" fill="#7355dd"/>
        </g>
        <g>
          <rect x="500" y="308" width="10" height="10" rx="2" fill="#41b883"/>
          <text x="518" y="317" fill="#f8fafc" font-size="14" font-weight="800">Vue</text>
          <text x="912" y="317" text-anchor="end" fill="#c9d1d9" font-size="13" font-weight="700">2.7% · 4.7 MB</text>
          <rect x="500" y="328" width="412" height="5" rx="2" fill="#21262d"/>
          <rect x="500" y="328" width="11" height="5" rx="2" fill="#41b883"/>
        </g>
    <text x="48" y="351" fill="#6e7681" font-size="11">数据来自 GitHub GraphQL / Linguist；私有仓库只参与聚合，不展示仓库名称或私有内容。</text>
  </g>
</svg>
